<?xml version="1.0" encoding="iso-8859-1"?>
<!-- Generator: Adobe Illustrator 16.0.0, SVG Export Plug-In . SVG Version: 6.00 Build 0)  -->
<!DOCTYPE svg PUBLIC "-//W3C//DTD SVG 1.1//EN" "http://www.w3.org/Graphics/SVG/1.1/DTD/svg11.dtd">
<svg xmlns="http://www.w3.org/2000/svg" xmlns:xlink="http://www.w3.org/1999/xlink" version="1.1" id="Capa_1" x="0px" y="0px" width="512px" height="512px" viewBox="0 0 128 128" style="enable-background:new 0 0 128 128;" xml:space="preserve">
<g>
	<g>
		<path d="M116,16H12C5.373,16,0,21.373,0,28v16v56c0,6.627,5.373,12,12,12h104c6.627,0,12-5.373,12-12V44V28    C128,21.373,122.627,16,116,16z M124,98c0,5.521-4.479,10-10,10H14c-5.523,0-10-4.479-10-10V48h120V98z M124,44H4V30    c0-5.522,4.477-10,10-10h100c5.521,0,10,4.478,10,10V44z" fill="#757575"/>
		<path d="M94,60h20c1.104,0,2-0.896,2-2s-0.896-2-2-2H94c-1.104,0-2,0.896-2,2S92.896,60,94,60z" fill="#757575"/>
	</g>
</g>
<g>
</g>
<g>
</g>
<g>
</g>
<g>
</g>
<g>
</g>
<g>
</g>
<g>
</g>
<g>
</g>
<g>
</g>
<g>
</g>
<g>
</g>
<g>
</g>
<g>
</g>
<g>
</g>
<g>
</g>
</svg>
